<?xml version="1.0" encoding="utf-8"?>
<!-- Generator: Adobe Illustrator 24.3.0, SVG Export Plug-In . SVG Version: 6.00 Build 0)  -->
<svg version="1.1" id="Capa_1" xmlns="http://www.w3.org/2000/svg" xmlns:xlink="http://www.w3.org/1999/xlink" x="0px" y="0px"
	 viewBox="0 0 97.3 97.3" style="enable-background:new 0 0 97.3 97.3;" xml:space="preserve">
<style type="text/css">
	.st0{fill:#7400CA;}
</style>
<g>
	<path class="st0" d="M34.5,13.3L0.6,47.2c-0.8,0.8-0.8,2,0,2.8L34.5,84c0.8,0.8,2,0.8,2.8,0l9-9c0.4-0.4,0.6-0.9,0.6-1.4
		c0-0.5-0.2-1-0.6-1.4L31.8,57.6h63.5c1.1,0,2-0.9,2-2V41.7c0-1.1-0.9-2-2-2H31.8l14.5-14.5c0.8-0.8,0.8-2.1,0-2.8l-9-9
		c-0.4-0.4-0.9-0.6-1.4-0.6C35.4,12.7,34.9,13,34.5,13.3z"/>
</g>
</svg>
