<svg xmlns="http://www.w3.org/2000/svg" width="512" height="375.5" viewBox="0 0 512 375.5">
  <g id="Camada_2" data-name="Camada 2">
    <g id="Capa_1" data-name="Capa 1">
      <path d="M8.5,230.4H355.8l-80.3,81.9a8.48,8.48,0,0,0,0,11.9l47.4,48.7a8.72,8.72,0,0,0,6.1,2.6,8.32,8.32,0,0,0,6.1-2.6L509.6,193.7a8.58,8.58,0,0,0,0-11.9L335.1,2.6A8.72,8.72,0,0,0,329,0a8.32,8.32,0,0,0-6.1,2.6L275.5,51.3a8.58,8.58,0,0,0,0,11.9l80.3,81.9H8.5A8.49,8.49,0,0,0,0,153.6v68.3A8.56,8.56,0,0,0,8.5,230.4Zm8.6-68.3h359a8.77,8.77,0,0,0,7.9-5.2,8.65,8.65,0,0,0-1.8-9.3L293.5,57.2,329,20.7l162.6,167L329,354.7l-35.4-36.4,88.7-90.4a8.61,8.61,0,0,0,1.8-9.3,8.41,8.41,0,0,0-7.9-5.2H17.1V162.1Z" fill="#7400ca"/>
    </g>
  </g>
</svg>
