<?xml version="1.0" encoding="utf-8"?>
<!-- Generator: Adobe Illustrator 24.3.0, SVG Export Plug-In . SVG Version: 6.00 Build 0)  -->
<svg version="1.1" id="Capa_1" xmlns="http://www.w3.org/2000/svg" xmlns:xlink="http://www.w3.org/1999/xlink" x="0px" y="0px"
	 viewBox="0 0 512 512" style="enable-background:new 0 0 512 512;" xml:space="preserve">
<style type="text/css">
	.st0{fill:#7400CA;}
</style>
<g>
	<g>
		<path class="st0" d="M298.9,373c10.9-11.1,17.1-26.2,17.1-42c0-33.1-26.9-60-60-60s-60,26.9-60,60c0,15.8,6.3,30.8,17.1,42
			L196.5,433c-1.2,4.5-0.3,9.4,2.5,13.1s7.3,5.9,11.9,5.9h90c4.7,0,9.1-2.2,11.9-5.9c2.8-3.7,3.8-8.6,2.5-13.1L298.9,373z
			 M267.4,371.8l13.9,50.2h-50.6l13.9-50.2c1.7-6.1-0.6-12.6-5.8-16.2c-8-5.6-12.7-14.8-12.7-24.5c0-16.5,13.5-30,30-30
			s30,13.5,30,30c0,9.7-4.8,18.9-12.7,24.5C268.1,359.2,265.8,365.7,267.4,371.8z"/>
	</g>
</g>
<g>
	<g>
		<path class="st0" d="M406,211v-61C406,67.3,338.7,0,256,0S106,67.3,106,150v61c-24.8,0-45,20.2-45,45v211c0,24.8,20.2,45,45,45
			h300c24.8,0,45-20.2,45-45V256C451,231.2,430.8,211,406,211z M136,150c0-66.2,53.8-120,120-120s120,53.8,120,120v61h-30v-61
			c0-49.6-40.4-90-90-90s-90,40.4-90,90v61h-30V150z M316,150v61H196v-61c0-33.1,26.9-60,60-60S316,116.9,316,150z M421,467
			c0,8.3-6.7,15-15,15H106c-8.3,0-15-6.7-15-15V256c0-8.3,6.7-15,15-15h300c8.3,0,15,6.7,15,15V467z"/>
	</g>
</g>
</svg>
