<svg xmlns="http://www.w3.org/2000/svg" width="440.18" height="440.12" viewBox="0 0 440.18 440.12">
  <g id="Camada_2" data-name="Camada 2">
    <g id="Camada_1-2" data-name="Camada 1">
      <g>
        <path d="M220.09,6.5C102.13,6.5,6.5,102.13,6.5,220.09c0,113.36,88.33,206.05,199.92,213.1V281.39h27.34v151.8c111.59-7.05,199.92-99.74,199.92-213.1C433.68,102.13,338.05,6.5,220.09,6.5Z" fill="none" stroke="#383838" stroke-miterlimit="10" stroke-width="13"/>
        <circle cx="220.09" cy="219.85" r="54.37" fill="none" stroke="#383838" stroke-miterlimit="10" stroke-width="13"/>
        <path d="M219.58,43.13A179.26,179.26,0,0,0,40.32,222.39C40.32,307,99,377.71,177.81,396.56V381.94c-69.76-18.76-121.28-83-121.28-159.74,0-91.43,73-165.54,163.05-165.54s163,74.11,163,165.54c0,76.72-51.52,141-121.28,159.74v14.62C340.17,377.71,398.84,307,398.84,222.39A179.26,179.26,0,0,0,219.58,43.13Z" fill="#383838"/>
      </g>
    </g>
  </g>
</svg>
