<?xml version="1.0" encoding="utf-8"?>
<!-- Generator: Adobe Illustrator 24.3.0, SVG Export Plug-In . SVG Version: 6.00 Build 0)  -->
<svg version="1.1" id="Capa_1" xmlns="http://www.w3.org/2000/svg" xmlns:xlink="http://www.w3.org/1999/xlink" x="0px" y="0px"
	 viewBox="0 0 512 512" style="enable-background:new 0 0 512 512;" xml:space="preserve">
<style type="text/css">
	.st0{fill:#7400CA;}
</style>
<g>
	<g>
		<path class="st0" d="M503.5,213.3H156.2l80.3-81.9c3.2-3.3,3.3-8.6,0-11.9l-47.4-48.7c-1.6-1.6-3.8-2.6-6.1-2.6s-4.5,0.9-6.1,2.6
			L2.4,250c-3.2,3.3-3.2,8.6,0,11.9l174.5,179.2c1.6,1.6,3.8,2.6,6.1,2.6s4.5-0.9,6.1-2.6l47.4-48.7c3.2-3.3,3.2-8.6,0-11.9
			l-80.3-81.9h347.3c4.7,0,8.5-3.8,8.5-8.5v-68.3C512,217.2,508.2,213.3,503.5,213.3z M494.9,281.6H135.9c-3.4,0-6.5,2.1-7.9,5.2
			c-1.3,3.2-0.6,6.8,1.8,9.3l88.7,90.4L183,423L20.4,256L183,89l35.4,36.4l-88.7,90.4c-2.4,2.4-3.1,6.1-1.8,9.3s4.4,5.2,7.9,5.2
			h359.1L494.9,281.6L494.9,281.6z"/>
	</g>
</g>
</svg>
