<svg id="Capa_1" data-name="Capa 1" xmlns="http://www.w3.org/2000/svg" width="505.4" height="320.9" viewBox="0 0 505.4 320.9">
  <path d="M437.1,233.4a57.7,57.7,0,1,0-66.2,0,100,100,0,0,0-34.1,20A129.37,129.37,0,0,0,290,227.9a73.1,73.1,0,1,0-75.6,0,130.44,130.44,0,0,0-46.3,25.2,100.79,100.79,0,0,0-33.7-19.6,57.7,57.7,0,1,0-66.2,0A101.38,101.38,0,0,0,0,329.2v6.6a.43.43,0,0,0,.4.4H122.7a134.5,134.5,0,0,0-1.1,16.9v6.8a53.18,53.18,0,0,0,53.2,53.2h155A53.18,53.18,0,0,0,383,359.9v-6.8a134.5,134.5,0,0,0-1.1-16.9H505a.43.43,0,0,0,.4-.4v-6.6A101.77,101.77,0,0,0,437.1,233.4Zm-74.8-47.3a41.7,41.7,0,1,1,42.5,41.7h-1.6A41.64,41.64,0,0,1,362.3,186.1ZM194.9,165.4a57.1,57.1,0,1,1,60.4,57h-6.6A57.25,57.25,0,0,1,194.9,165.4ZM59.3,186.1a41.7,41.7,0,1,1,42.5,41.7h-1.6A41.71,41.71,0,0,1,59.3,186.1Zm66.2,134H16.2a85.44,85.44,0,0,1,84.2-76.3h1.2a84.55,84.55,0,0,1,54.5,20.3A132.48,132.48,0,0,0,125.5,320.1ZM366.8,360a37.26,37.26,0,0,1-37.2,37.2h-155A37.26,37.26,0,0,1,137.4,360v-6.8A114.87,114.87,0,0,1,248.7,238.5c1.1.1,2.3.1,3.4.1s2.3,0,3.4-.1A114.87,114.87,0,0,1,366.8,353.2Zm11.9-39.9a131,131,0,0,0-30.3-55.6,85,85,0,0,1,55-20.7h1.2a85.44,85.44,0,0,1,84.2,76.3Z" transform="translate(0 -92.2)" fill="#fff"/>
</svg>
